<svg width="40" height="40" viewBox="0 0 40 40" fill="none" xmlns="http://www.w3.org/2000/svg">
<mask id="mask0_227_12" style="mask-type:alpha" maskUnits="userSpaceOnUse" x="0" y="0" width="40" height="40">
<rect width="40" height="40" fill="#D9D9D9"/>
</mask>
<g mask="url(#mask0_227_12)">
<path d="M13.3333 38.3333C12.4167 38.3333 11.6319 38.0069 10.9792 37.3542C10.3264 36.7014 10 35.9167 10 35V28.3333H13.3333V30H30V9.99999H13.3333V11.6667H10V4.99999C10 4.08332 10.3264 3.2986 10.9792 2.64582C11.6319 1.99305 12.4167 1.66666 13.3333 1.66666H30C30.9167 1.66666 31.7014 1.99305 32.3542 2.64582C33.0069 3.2986 33.3333 4.08332 33.3333 4.99999V35C33.3333 35.9167 33.0069 36.7014 32.3542 37.3542C31.7014 38.0069 30.9167 38.3333 30 38.3333H13.3333ZM7.33333 28.3333L5 26L14.3333 16.6667H8.33333V13.3333H20V25H16.6667V19L7.33333 28.3333Z" fill="white"/>
</g>
</svg>
