<svg width="28" height="29" viewBox="0 0 28 29" fill="none" xmlns="http://www.w3.org/2000/svg">
<mask id="mask0_227_908" style="mask-type:alpha" maskUnits="userSpaceOnUse" x="0" y="0" width="28" height="29">
<rect y="0.5" width="28" height="28" fill="#D9D9D9"/>
</mask>
<g mask="url(#mask0_227_908)">
<path d="M12.3663 19.8665L20.5913 11.6415L18.958 10.0082L12.3663 16.5999L9.04134 13.2749L7.40801 14.9082L12.3663 19.8665ZM13.9997 26.1665C12.3858 26.1665 10.8691 25.8603 9.44967 25.2478C8.03023 24.6353 6.79551 23.804 5.74551 22.754C4.69551 21.704 3.86426 20.4693 3.25176 19.0499C2.63926 17.6304 2.33301 16.1137 2.33301 14.4999C2.33301 12.886 2.63926 11.3693 3.25176 9.94986C3.86426 8.53041 4.69551 7.29569 5.74551 6.24569C6.79551 5.19569 8.03023 4.36444 9.44967 3.75194C10.8691 3.13944 12.3858 2.83319 13.9997 2.83319C15.6136 2.83319 17.1302 3.13944 18.5497 3.75194C19.9691 4.36444 21.2038 5.19569 22.2538 6.24569C23.3038 7.29569 24.1351 8.53041 24.7476 9.94986C25.3601 11.3693 25.6663 12.886 25.6663 14.4999C25.6663 16.1137 25.3601 17.6304 24.7476 19.0499C24.1351 20.4693 23.3038 21.704 22.2538 22.754C21.2038 23.804 19.9691 24.6353 18.5497 25.2478C17.1302 25.8603 15.6136 26.1665 13.9997 26.1665Z" fill="white"/>
</g>
</svg>
