<svg width="40" height="40" viewBox="0 0 40 40" fill="none" xmlns="http://www.w3.org/2000/svg">
<mask id="mask0_227_356" style="mask-type:alpha" maskUnits="userSpaceOnUse" x="0" y="0" width="40" height="40">
<rect width="40" height="40" fill="#D9D9D9"/>
</mask>
<g mask="url(#mask0_227_356)">
<path d="M3.33325 33.3333V28.3333H6.66659V10C6.66659 9.08334 6.99297 8.29862 7.64575 7.64584C8.29853 6.99306 9.08325 6.66667 9.99992 6.66667H34.9999V10H9.99992V28.3333H19.9999V33.3333H3.33325ZM24.9999 33.3333C24.5277 33.3333 24.1319 33.1736 23.8124 32.8542C23.493 32.5347 23.3333 32.1389 23.3333 31.6667V15C23.3333 14.5278 23.493 14.1319 23.8124 13.8125C24.1319 13.4931 24.5277 13.3333 24.9999 13.3333H34.9999C35.4721 13.3333 35.868 13.4931 36.1874 13.8125C36.5069 14.1319 36.6666 14.5278 36.6666 15V31.6667C36.6666 32.1389 36.5069 32.5347 36.1874 32.8542C35.868 33.1736 35.4721 33.3333 34.9999 33.3333H24.9999Z" fill="white"/>
</g>
</svg>
