<svg width="40" height="40" viewBox="0 0 40 40" fill="none" xmlns="http://www.w3.org/2000/svg">
<mask id="mask0_227_243" style="mask-type:alpha" maskUnits="userSpaceOnUse" x="0" y="0" width="40" height="40">
<rect width="40" height="40" fill="#D9D9D9"/>
</mask>
<g mask="url(#mask0_227_243)">
<path d="M12.4999 25H14.9999V18.3333H12.4999V20.4167H9.99992V22.9167H12.4999V25ZM16.6666 22.9167H29.9999V20.4167H16.6666V22.9167ZM24.9999 18.3333H27.4999V16.25H29.9999V13.75H27.4999V11.6667H24.9999V18.3333ZM9.99992 16.25H23.3333V13.75H9.99992V16.25ZM13.3333 35V31.6667H6.66659C5.74992 31.6667 4.9652 31.3403 4.31242 30.6875C3.65964 30.0347 3.33325 29.25 3.33325 28.3333V8.33333C3.33325 7.41667 3.65964 6.63194 4.31242 5.97917C4.9652 5.32639 5.74992 5 6.66659 5H33.3333C34.2499 5 35.0346 5.32639 35.6874 5.97917C36.3402 6.63194 36.6666 7.41667 36.6666 8.33333V28.3333C36.6666 29.25 36.3402 30.0347 35.6874 30.6875C35.0346 31.3403 34.2499 31.6667 33.3333 31.6667H26.6666V35H13.3333Z" fill="white"/>
</g>
</svg>
