<svg width="40" height="40" viewBox="0 0 40 40" fill="none" xmlns="http://www.w3.org/2000/svg">
<mask id="mask0_227_21" style="mask-type:alpha" maskUnits="userSpaceOnUse" x="0" y="0" width="40" height="40">
<rect width="40" height="40" fill="#D9D9D9"/>
</mask>
<g mask="url(#mask0_227_21)">
<path d="M5.12492 21.6667C5.09714 21.3889 5.07631 21.1111 5.06242 20.8333C5.04853 20.5556 5.04159 20.2778 5.04159 20C5.04159 17.9167 5.43047 15.9653 6.20825 14.1458C6.98603 12.3264 8.05547 10.7431 9.41659 9.39583C10.7777 8.04861 12.361 6.97917 14.1666 6.1875C15.9721 5.39583 17.9166 5 19.9999 5C22.0833 5 24.0346 5.39583 25.8541 6.1875C27.6735 6.97917 29.2569 8.04861 30.6041 9.39583C31.9513 10.7431 33.0208 12.3264 33.8124 14.1458C34.6041 15.9653 34.9999 17.9167 34.9999 20C34.9999 20.2778 34.993 20.5556 34.9791 20.8333C34.9652 21.1111 34.9444 21.3889 34.9166 21.6667H31.5416C31.5971 21.3889 31.6319 21.1111 31.6458 20.8333C31.6596 20.5556 31.6666 20.2778 31.6666 20C31.6666 19.7222 31.6596 19.4444 31.6458 19.1667C31.6319 18.8889 31.5971 18.6111 31.5416 18.3333H26.6249C26.6527 18.6111 26.6666 18.8889 26.6666 19.1667V20.8333C26.6666 21.1111 26.6527 21.3889 26.6249 21.6667H23.3333V20.2917C23.3333 19.9583 23.3263 19.625 23.3124 19.2917C23.2985 18.9583 23.2777 18.6389 23.2499 18.3333H16.7916C16.7638 18.6389 16.743 18.9583 16.7291 19.2917C16.7152 19.625 16.7083 19.9583 16.7083 20.2917V21.6667H13.4166C13.3888 21.3889 13.3749 21.1111 13.3749 20.8333V19.1667C13.3749 18.8889 13.3888 18.6111 13.4166 18.3333H8.49992C8.44436 18.6111 8.40964 18.8889 8.39575 19.1667C8.38186 19.4444 8.37492 19.7222 8.37492 20C8.37492 20.2778 8.38186 20.5556 8.39575 20.8333C8.40964 21.1111 8.44436 21.3889 8.49992 21.6667H5.12492ZM9.49992 15H13.7916C14.0138 13.8056 14.2916 12.7292 14.6249 11.7708C14.9583 10.8125 15.3194 9.94444 15.7083 9.16667C14.3749 9.66667 13.1666 10.4236 12.0833 11.4375C10.9999 12.4514 10.1388 13.6389 9.49992 15ZM17.2499 15H22.7499C22.4721 13.8056 22.1249 12.6389 21.7083 11.5C21.2916 10.3611 20.7221 9.30556 19.9999 8.33333C19.2777 9.30556 18.7013 10.3611 18.2708 11.5C17.8402 12.6389 17.4999 13.8056 17.2499 15ZM26.2499 15H30.5416C29.9027 13.6389 29.0346 12.4514 27.9374 11.4375C26.8402 10.4236 25.6249 9.66667 24.2916 9.16667C24.6805 10 25.0485 10.8819 25.3958 11.8125C25.743 12.7431 26.0277 13.8056 26.2499 15ZM18.3333 35V33.3333C18.3333 31.9444 17.8471 30.7639 16.8749 29.7917C15.9027 28.8194 14.7221 28.3333 13.3333 28.3333H3.33325V25H13.3333C14.6666 25 15.9096 25.2917 17.0624 25.875C18.2152 26.4583 19.1944 27.2778 19.9999 28.3333C20.8055 27.2778 21.7846 26.4583 22.9374 25.875C24.0902 25.2917 25.3333 25 26.6666 25H36.6666V28.3333H26.6666C25.2777 28.3333 24.0971 28.8194 23.1249 29.7917C22.1527 30.7639 21.6666 31.9444 21.6666 33.3333V35H18.3333Z" fill="white"/>
</g>
</svg>
