<svg width="40" height="40" viewBox="0 0 40 40" fill="none" xmlns="http://www.w3.org/2000/svg">
<mask id="mask0_227_807" style="mask-type:alpha" maskUnits="userSpaceOnUse" x="0" y="0" width="40" height="40">
<rect width="40" height="40" fill="#D9D9D9"/>
</mask>
<g mask="url(#mask0_227_807)">
<path d="M3.33333 38.3333V35H5C5.88889 35 6.75 34.8611 7.58333 34.5833C8.41667 34.3056 9.22222 33.8889 10 33.3333C10.7778 33.8889 11.5833 34.3056 12.4167 34.5833C13.25 34.8611 14.1111 35 15 35C15.8889 35 16.7569 34.8611 17.6042 34.5833C18.4514 34.3056 19.25 33.8889 20 33.3333C20.7778 33.8889 21.5833 34.3056 22.4167 34.5833C23.25 34.8611 24.1111 35 25 35C25.8889 35 26.7569 34.8611 27.6042 34.5833C28.4514 34.3056 29.25 33.8889 30 33.3333C30.75 33.8889 31.5486 34.3056 32.3958 34.5833C33.2431 34.8611 34.1111 35 35 35H36.6667V38.3333H35C34.1389 38.3333 33.2917 38.2292 32.4583 38.0208C31.625 37.8125 30.8056 37.5 30 37.0833C29.1944 37.5 28.375 37.8125 27.5417 38.0208C26.7083 38.2292 25.8611 38.3333 25 38.3333C24.1389 38.3333 23.2917 38.2292 22.4583 38.0208C21.625 37.8125 20.8056 37.5 20 37.0833C19.1944 37.5 18.375 37.8125 17.5417 38.0208C16.7083 38.2292 15.8611 38.3333 15 38.3333C14.1389 38.3333 13.2917 38.2292 12.4583 38.0208C11.625 37.8125 10.8056 37.5 10 37.0833C9.19444 37.5 8.375 37.8125 7.54167 38.0208C6.70833 38.2292 5.86111 38.3333 5 38.3333H3.33333ZM15 31.6667C14 31.6667 13.0694 31.4306 12.2083 30.9583C11.3472 30.4861 10.6111 29.8889 10 29.1667C9.52778 29.6667 9.00694 30.1181 8.4375 30.5208C7.86806 30.9236 7.23611 31.2361 6.54167 31.4583C5.40278 31.1528 4.25 30.7917 3.08333 30.375C1.91667 29.9583 0.888889 29.5556 0 29.1667C1.5 28.5278 3.33333 27.875 5.5 27.2083C7.66667 26.5417 9.79167 26.0417 11.875 25.7083L14.125 18.75C14.4306 17.8056 15.0069 17.1806 15.8542 16.875C16.7014 16.5695 17.5 16.6111 18.25 17L22.5 19.1667L27.2083 16.6667L29.9583 10.5L29.125 8.29168L31.3333 3.33334L36.6667 5.70834L34.4583 10.6667L32.25 11.5L26.0833 25.4167C28.6667 25.7222 31.2569 26.25 33.8542 27C36.4514 27.75 38.5 28.4722 40 29.1667C39.1944 29.5278 38.1736 29.9236 36.9375 30.3542C35.7014 30.7847 34.5417 31.1528 33.4583 31.4583C32.7639 31.2639 32.1319 30.9653 31.5625 30.5625C30.9931 30.1597 30.4722 29.6945 30 29.1667C29.3889 29.8889 28.6528 30.4861 27.7917 30.9583C26.9306 31.4306 26 31.6667 25 31.6667C24 31.6667 23.0694 31.4306 22.2083 30.9583C21.3472 30.4861 20.6111 29.8889 20 29.1667C19.3889 29.8889 18.6528 30.4861 17.7917 30.9583C16.9306 31.4306 16 31.6667 15 31.6667ZM23.4583 25.125L25.0417 21.5833L22.5 22.9167L19.5833 21.4167L18.4167 25H20C20.5833 25 21.1667 25.007 21.75 25.0208C22.3333 25.0347 22.9028 25.0695 23.4583 25.125ZM20 15.8333C19.0833 15.8333 18.2986 15.507 17.6458 14.8542C16.9931 14.2014 16.6667 13.4167 16.6667 12.5C16.6667 11.5833 16.9931 10.7986 17.6458 10.1458C18.2986 9.49307 19.0833 9.16668 20 9.16668C20.9167 9.16668 21.7014 9.49307 22.3542 10.1458C23.0069 10.7986 23.3333 11.5833 23.3333 12.5C23.3333 13.4167 23.0069 14.2014 22.3542 14.8542C21.7014 15.507 20.9167 15.8333 20 15.8333Z" fill="white"/>
</g>
</svg>
