<svg width="161" height="28" viewBox="0 0 161 28" fill="none" xmlns="http://www.w3.org/2000/svg">
<rect x="18.7029" y="1.0459" width="10.1898" height="26.4496" rx="5.0949" transform="rotate(45 18.7029 1.0459)" fill="#004AAD"/>
<rect y="8.25159" width="10.1898" height="26.4496" rx="5.0949" transform="rotate(-45 0 8.25159)" fill="#004AAD"/>
<circle cx="7.38974" cy="8.19699" r="4.04916" fill="white"/>
<path d="M30.7807 23V6.20148H43.786C45.5732 6.20148 46.8757 6.56274 47.6933 7.28526C48.5108 7.98876 48.9196 8.84437 48.9196 9.85209V10.7077C48.9196 11.4873 48.7485 12.1337 48.4063 12.6471C48.083 13.1414 47.7313 13.4932 47.351 13.7023C48.1876 13.9685 48.8531 14.4344 49.3474 15.0998C49.8418 15.7463 50.089 16.6019 50.089 17.6667V18.1801C50.089 18.7505 50.0224 19.3209 49.8893 19.8913C49.7562 20.4617 49.4995 20.9846 49.1193 21.4599C48.758 21.9162 48.2351 22.287 47.5507 22.5722C46.8852 22.8574 46.0106 23 44.9268 23H30.7807ZM36.3421 12.6756H42.0462C42.5406 12.6756 42.8828 12.571 43.073 12.3619C43.2631 12.1527 43.3582 11.8675 43.3582 11.5063V11.2211C43.3582 10.8218 43.2631 10.5366 43.073 10.3655C42.8828 10.1943 42.455 10.1088 41.7895 10.1088H36.3421V12.6756ZM36.3421 19.0927H43.2156C43.7099 19.0927 44.0522 19.0071 44.2423 18.836C44.4324 18.6459 44.5275 18.3512 44.5275 17.9519V17.4385C44.5275 17.0773 44.4039 16.8016 44.1567 16.6114C43.9095 16.4023 43.4817 16.2977 42.8733 16.2977H36.3421V19.0927ZM57.6008 23C56.3459 23 55.4047 22.8194 54.7772 22.4581C54.1498 22.0969 53.7315 21.6025 53.5223 20.9751C53.3322 20.3286 53.2371 19.5871 53.2371 18.7505V14.4439C53.2371 13.6453 53.3417 12.9323 53.5509 12.3048C53.76 11.6584 54.1688 11.1545 54.7772 10.7933C55.4047 10.413 56.3459 10.2229 57.6008 10.2229H65.5294C66.7843 10.2229 67.716 10.413 68.3244 10.7933C68.9519 11.1545 69.3607 11.6584 69.5508 12.3048C69.76 12.9323 69.8645 13.6453 69.8645 14.4439V18.7505C69.8645 19.5871 69.76 20.3286 69.5508 20.9751C69.3607 21.6025 68.9519 22.0969 68.3244 22.4581C67.716 22.8194 66.7843 23 65.5294 23H57.6008ZM59.8824 19.4064H63.2763C64.189 19.4064 64.6358 19.0262 64.6168 18.2656V14.9572C64.6168 14.577 64.5122 14.2918 64.303 14.1016C64.1129 13.9115 63.7707 13.8164 63.2763 13.8164H59.9109C59.4166 13.8164 59.0648 13.9115 58.8557 14.1016C58.6465 14.2918 58.5419 14.577 58.5419 14.9572V18.2656C58.5229 19.0262 58.9697 19.4064 59.8824 19.4064ZM73.2761 23V7.1997L72.9909 4.91806H78.4668V23H73.2761ZM80.4496 23L81.02 21.8592L85.954 16.5829L80.4496 10.2229H86.4959L89.1198 13.7879H89.405L92.0859 10.2229H98.1608L97.7045 11.1355L92.4567 16.5829L98.1608 23H92.0574L89.405 19.5776H89.1198L86.4959 23H80.4496ZM105.109 23C103.664 23 102.675 22.6958 102.143 22.0873C101.611 21.4789 101.344 20.5663 101.344 19.3494V13.8164H99.0057V10.2229H100.204C100.527 10.2229 100.783 10.1658 100.974 10.0517C101.183 9.91864 101.316 9.69048 101.373 9.36725L101.915 6.31556H106.592V10.2229H111.355V13.8164H106.592V18.2371C106.592 18.7124 106.706 19.0262 106.934 19.1783C107.163 19.3304 107.505 19.4064 107.961 19.4064H110.813L111.384 22.7148C110.984 22.7718 110.376 22.8384 109.558 22.9144C108.741 22.9715 107.847 23 106.877 23H105.109ZM116.535 8.99648C114.615 8.99648 113.655 8.1789 113.655 6.54373C113.655 5.63107 113.892 5.00362 114.368 4.66138C114.862 4.30012 115.585 4.11949 116.535 4.11949C117.543 4.11949 118.275 4.30012 118.731 4.66138C119.207 5.00362 119.444 5.63107 119.444 6.54373C119.444 8.1789 118.475 8.99648 116.535 8.99648ZM113.911 23V10.2229H119.102V23H113.911ZM122.874 23V10.2229H127.009L128.15 10.7933C128.949 10.6412 129.909 10.5081 131.031 10.394C132.171 10.2799 133.236 10.2229 134.225 10.2229H135.651C136.602 10.2229 137.334 10.356 137.847 10.6221C138.36 10.8883 138.722 11.2211 138.931 11.6204C139.159 12.0196 139.292 12.4284 139.33 12.8467C139.387 13.246 139.416 13.5883 139.416 13.8735V23H134.196V14.9572C134.196 14.1967 133.74 13.8164 132.827 13.8164H129.006C128.644 13.8164 128.407 13.8545 128.293 13.9305C128.198 13.9876 128.15 14.1587 128.15 14.4439V23H122.874ZM147.068 23C145.813 23 144.843 22.8194 144.159 22.4581C143.493 22.0969 143.037 21.6025 142.79 20.9751C142.543 20.3286 142.419 19.5871 142.419 18.7505V14.4439C142.419 13.6833 142.543 12.9893 142.79 12.3619C143.056 11.7154 143.522 11.2021 144.187 10.8218C144.853 10.4225 145.813 10.2229 147.068 10.2229H152.972C154.455 10.2229 155.586 10.4035 156.366 10.7647C157.164 11.107 157.706 11.6013 157.991 12.2478C158.295 12.8753 158.448 13.6073 158.448 14.4439V18.0945H153.456C151.745 18.0945 150.443 18.0565 149.549 17.9804C148.675 17.9044 148.057 17.8568 147.695 17.8378V18.2656C147.676 19.0262 148.133 19.4064 149.064 19.4064H149.948C151.47 19.4064 152.877 19.3779 154.17 19.3209C155.462 19.2448 156.423 19.1783 157.05 19.1212L158.761 21.8307C158.761 22.0208 158.6 22.2014 158.276 22.3726C157.953 22.5437 157.383 22.6958 156.565 22.8289C155.767 22.943 154.626 23 153.143 23H147.068ZM147.695 15.3565H153.171V14.9572C153.171 14.577 153.133 14.3108 153.057 14.1587C153 14.0066 152.801 13.9115 152.458 13.8735C152.116 13.8354 151.536 13.8164 150.719 13.8164H149.064C148.152 13.8164 147.695 14.1967 147.695 14.9572V15.3565Z" fill="#004AAD"/>
<circle cx="116.651" cy="6.14272" r="3.07143" fill="#DA6708"/>
</svg>
