<svg width="86" height="18" viewBox="0 0 86 18" fill="none" xmlns="http://www.w3.org/2000/svg">
<g clip-path="url(#clip0_111_1483)">
<path d="M0 1.86519C0 0.835075 0.835074 0 1.86519 0L17.585 0C18.6151 0 19.4502 0.835074 19.4502 1.86519V7.77784C19.4502 13.1489 15.0961 17.5029 9.7251 17.5029C4.35408 17.5029 0 13.1489 0 7.77785L0 1.86519Z" fill="#3A3D98"/>
<path d="M3.91211 4.27493C3.91211 3.85052 4.25616 3.50647 4.68057 3.50647H19.4529V5.04339H4.68057C4.25616 5.04339 3.91211 4.69934 3.91211 4.27493Z" fill="white"/>
<path d="M0 6.17712H14.7723C15.1967 6.17712 15.5408 6.52117 15.5408 6.94558C15.5408 7.36999 15.1967 7.71404 14.7723 7.71404H0L0 6.17712Z" fill="white"/>
<path d="M3.91211 10.4077C3.91211 9.98333 4.25616 9.63928 4.68057 9.63928H19.4529V11.1762H4.68057C4.25616 11.1762 3.91211 10.8321 3.91211 10.4077Z" fill="white"/>
<path d="M0 12.3099H14.7723C15.1967 12.3099 15.5408 12.654 15.5408 13.0784C15.5408 13.5028 15.1967 13.8469 14.7723 13.8469H0L0 12.3099Z" fill="white"/>
</g>
<path d="M30.8901 5.83516C30.833 5.25925 30.5879 4.81185 30.1548 4.49296C29.7216 4.17407 29.1338 4.01462 28.3913 4.01462C27.8868 4.01462 27.4609 4.08601 27.1134 4.2288C26.766 4.36683 26.4994 4.55959 26.3138 4.80709C26.1329 5.05459 26.0425 5.3354 26.0425 5.64953C26.033 5.91131 26.0877 6.13977 26.2067 6.33491C26.3305 6.53005 26.4994 6.69902 26.7136 6.8418C26.9278 6.97983 27.1753 7.1012 27.4561 7.20591C27.7369 7.30586 28.0368 7.39153 28.3557 7.46293L29.6693 7.77706C30.3071 7.91985 30.8925 8.11023 31.4256 8.34821C31.9586 8.58618 32.4203 8.8789 32.8106 9.22635C33.2009 9.57379 33.5031 9.98312 33.7173 10.4543C33.9362 10.9255 34.0481 11.4657 34.0529 12.0749C34.0481 12.9697 33.8196 13.7456 33.3675 14.4024C32.9201 15.0544 32.2728 15.5613 31.4256 15.9231C30.5831 16.28 29.567 16.4585 28.3771 16.4585C27.1967 16.4585 26.1686 16.2776 25.2929 15.9159C24.4219 15.5542 23.7413 15.0187 23.251 14.3096C22.7655 13.5956 22.5109 12.7127 22.4871 11.6609H25.4785C25.5118 12.1511 25.6522 12.5604 25.8997 12.8888C26.152 13.2125 26.4875 13.4576 26.9064 13.6242C27.33 13.786 27.8083 13.8669 28.3414 13.8669C28.8649 13.8669 29.3195 13.7908 29.705 13.6385C30.0953 13.4862 30.3975 13.2744 30.6117 13.0031C30.8259 12.7318 30.933 12.42 30.933 12.0678C30.933 11.7394 30.8354 11.4633 30.6402 11.2396C30.4499 11.0159 30.169 10.8256 29.7978 10.6685C29.4313 10.5114 28.9815 10.3686 28.4485 10.2401L26.8564 9.84033C25.6237 9.54048 24.6503 9.07166 23.9364 8.43388C23.2225 7.7961 22.8679 6.93699 22.8726 5.85657C22.8679 4.97129 23.1035 4.19786 23.5794 3.53629C24.0601 2.87471 24.7193 2.35829 25.557 1.98705C26.3947 1.6158 27.3466 1.43018 28.4128 1.43018C29.4979 1.43018 30.4451 1.6158 31.2542 1.98705C32.0681 2.35829 32.7011 2.87471 33.1533 3.53629C33.6055 4.19786 33.8387 4.96415 33.8529 5.83516H30.8901ZM38.8309 13.0959L38.838 9.44767H39.2806L42.7932 5.28543H46.2843L41.5652 10.797H40.8442L38.8309 13.0959ZM36.0751 16.2515V1.63008H39.1164V16.2515H36.0751ZM42.9288 16.2515L39.7019 11.4752L41.7294 9.3263L46.4914 16.2515H42.9288ZM47.7765 16.2515V5.28543H50.8178V16.2515H47.7765ZM49.3043 3.87183C48.8521 3.87183 48.4642 3.72191 48.1406 3.42206C47.8217 3.11744 47.6622 2.75334 47.6622 2.32974C47.6622 1.91089 47.8217 1.55155 48.1406 1.25169C48.4642 0.947082 48.8521 0.794775 49.3043 0.794775C49.7564 0.794775 50.142 0.947082 50.4609 1.25169C50.7845 1.55155 50.9463 1.91089 50.9463 2.32974C50.9463 2.75334 50.7845 3.11744 50.4609 3.42206C50.142 3.72191 49.7564 3.87183 49.3043 3.87183ZM53.2541 16.2515V5.28543H56.2027V7.19877H56.3169C56.5168 6.51815 56.8524 6.00412 57.3236 5.65667C57.7948 5.30446 58.3373 5.12836 58.9513 5.12836C59.1036 5.12836 59.2678 5.13788 59.4439 5.15692C59.62 5.17596 59.7747 5.20213 59.908 5.23545V7.93412C59.7652 7.89129 59.5677 7.85321 59.3154 7.81989C59.0632 7.78658 58.8323 7.76992 58.6229 7.76992C58.1755 7.76992 57.7757 7.86749 57.4235 8.06263C57.0761 8.25301 56.8 8.51955 56.5953 8.86224C56.3954 9.20493 56.2955 9.59997 56.2955 10.0474V16.2515H53.2541ZM61.4804 16.2515V5.28543H64.429V7.19877H64.5432C64.7431 6.51815 65.0787 6.00412 65.5499 5.65667C66.0211 5.30446 66.5637 5.12836 67.1776 5.12836C67.3299 5.12836 67.4942 5.13788 67.6703 5.15692C67.8464 5.17596 68.001 5.20213 68.1343 5.23545V7.93412C67.9915 7.89129 67.794 7.85321 67.5418 7.81989C67.2895 7.78658 67.0587 7.76992 66.8492 7.76992C66.4018 7.76992 66.002 7.86749 65.6498 8.06263C65.3024 8.25301 65.0263 8.51955 64.8217 8.86224C64.6218 9.20493 64.5218 9.59997 64.5218 10.0474V16.2515H61.4804ZM72.5197 16.4585C71.82 16.4585 71.1965 16.3371 70.6492 16.0944C70.1018 15.8469 69.6687 15.4828 69.3498 15.0021C69.0357 14.5166 68.8786 13.9121 68.8786 13.1887C68.8786 12.5795 68.9904 12.0678 69.2141 11.6537C69.4378 11.2396 69.7425 10.9065 70.128 10.6542C70.5135 10.402 70.9514 10.2116 71.4416 10.0831C71.9366 9.95456 72.4554 9.86413 72.998 9.81177C73.6358 9.74514 74.1498 9.68326 74.5401 9.62615C74.9304 9.56428 75.2136 9.47384 75.3897 9.35485C75.5658 9.23587 75.6538 9.05976 75.6538 8.82654V8.78371C75.6538 8.33155 75.511 7.98172 75.2255 7.73422C74.9447 7.48672 74.5449 7.36298 74.0261 7.36298C73.4787 7.36298 73.0432 7.48434 72.7196 7.72708C72.3959 7.96506 72.1817 8.26491 72.077 8.62664L69.2641 8.39818C69.4069 7.73184 69.6877 7.15593 70.1066 6.67046C70.5254 6.18022 71.0656 5.80422 71.7272 5.54244C72.3935 5.27591 73.1646 5.14264 74.0403 5.14264C74.6496 5.14264 75.2326 5.21403 75.7895 5.35682C76.3511 5.49961 76.8485 5.72093 77.2816 6.02078C77.7195 6.32063 78.0646 6.70616 78.3168 7.17735C78.5691 7.64379 78.6952 8.20304 78.6952 8.8551V16.2515H75.8109V14.7308H75.7252C75.5491 15.0735 75.3135 15.3757 75.0184 15.6375C74.7233 15.8945 74.3688 16.0968 73.9547 16.2443C73.5406 16.3871 73.0623 16.4585 72.5197 16.4585ZM73.3907 14.3595C73.8381 14.3595 74.2331 14.2715 74.5758 14.0954C74.9185 13.9145 75.1874 13.6718 75.3825 13.3672C75.5777 13.0626 75.6753 12.7175 75.6753 12.332V11.1682C75.5801 11.2301 75.4492 11.2872 75.2826 11.3396C75.1208 11.3872 74.9375 11.4324 74.7329 11.4752C74.5282 11.5133 74.3235 11.549 74.1189 11.5823C73.9142 11.6109 73.7286 11.6371 73.562 11.6609C73.205 11.7132 72.8933 11.7965 72.6267 11.9107C72.3602 12.025 72.1532 12.1797 72.0056 12.3748C71.8581 12.5652 71.7843 12.8032 71.7843 13.0887C71.7843 13.5028 71.9342 13.8193 72.2341 14.0383C72.5387 14.2524 72.9242 14.3595 73.3907 14.3595ZM84.0961 1.63008V16.2515H81.0547V1.63008H84.0961Z" fill="#3A3D98"/>
<defs>
<clipPath id="clip0_111_1483">
<path d="M0 1.86519C0 0.835075 0.835074 0 1.86519 0L17.585 0C18.6151 0 19.4502 0.835074 19.4502 1.86519V7.77784C19.4502 13.1489 15.0961 17.5029 9.7251 17.5029C4.35408 17.5029 0 13.1489 0 7.77785L0 1.86519Z" fill="white"/>
</clipPath>
</defs>
</svg>
