<svg width="38" height="38" viewBox="0 0 38 38" fill="none" xmlns="http://www.w3.org/2000/svg">
<path d="M17.3337 7.33332V0.666656H20.667V7.33332H17.3337ZM28.417 11.9167L26.1253 9.62499L30.792 4.83332L33.1253 7.20832L28.417 11.9167ZM30.667 20.6667V17.3333H37.3337V20.6667H30.667ZM17.3337 37.3333V30.6667H20.667V37.3333H17.3337ZM9.58366 11.8333L4.83366 7.20832L7.20866 4.87499L11.917 9.58332L9.58366 11.8333ZM30.7503 33.1667L26.1253 28.375L28.3753 26.125L33.1253 30.7083L30.7503 33.1667ZM0.666992 20.6667V17.3333H7.33366V20.6667H0.666992ZM7.20866 33.1667L4.87533 30.7917L9.54199 26.125L10.7503 27.25L11.9587 28.4167L7.20866 33.1667ZM19.0003 29C16.2225 29 13.8614 28.0278 11.917 26.0833C9.97255 24.1389 9.00033 21.7778 9.00033 19C9.00033 16.2222 9.97255 13.8611 11.917 11.9167C13.8614 9.97221 16.2225 8.99999 19.0003 8.99999C21.7781 8.99999 24.1392 9.97221 26.0837 11.9167C28.0281 13.8611 29.0003 16.2222 29.0003 19C29.0003 21.7778 28.0281 24.1389 26.0837 26.0833C24.1392 28.0278 21.7781 29 19.0003 29Z" fill="white"/>
</svg>
