<svg width="63" height="28" viewBox="0 0 63 28" fill="none" xmlns="http://www.w3.org/2000/svg">
<g clip-path="url(#clip0_155_947)">
<path d="M0.714355 15.2099C0.714355 10.645 4.30964 7.39032 9.42273 7.39032C10.9403 7.39032 12.5966 7.67303 13.5258 8.09446V10.9452H13.4218L9.86688 8.40037C9.68343 8.33674 9.30075 8.2956 8.93792 8.2956C6.24863 8.2956 4.34982 10.801 4.34982 14.2578C4.34982 18.1185 6.71597 21.125 9.72265 21.125C9.9263 21.1216 10.1293 21.1004 10.3292 21.0616L10.2713 21.0377V14.6271L9.3596 13.5132V13.4094H14.6741V13.5132L13.7623 14.6271V22.0831H13.6585L11.3557 21.3733C10.4672 21.8176 9.09364 22.1408 7.85876 22.1408C3.62297 22.1408 0.714355 19.3302 0.714355 15.2099ZM17.1325 13.2535L16.0591 12.1803V12.0985L19.8795 11.0894H20.0814L20.2248 13.2535H20.3459C21.2174 11.7184 21.9849 11.0894 22.9543 11.0894C23.3583 11.0894 23.7046 11.2107 23.8835 11.3724V14.6443H23.7797L21.7379 13.2705C21.6772 13.2577 21.6152 13.2518 21.5532 13.253C21.132 13.253 20.526 13.657 20.3241 14.1418V20.7669L21.3913 21.7373V21.8411H16.2208V21.7373L17.1325 20.7677V13.2535ZM24.75 21.8348V21.754L25.6618 20.7614V13.2535L24.5886 12.2033V12.0985L28.6513 11.0885H28.8531V20.7672L29.7651 21.7597V21.8406H24.75V21.8348ZM25.5168 7.88087C25.5168 6.8883 26.1865 6.28223 27.254 6.28223C28.3214 6.28223 28.9909 6.8883 28.9909 7.88087C28.9909 8.85049 28.3274 9.45633 27.254 9.45633C26.1805 9.45633 25.5168 8.85049 25.5168 7.88087ZM31.2482 21.8348V21.731L32.1599 20.7614V12.5438H30.723V12.463L32.1771 11.2107C32.6215 8.2791 34.4221 6.28223 36.6208 6.28223C37.1689 6.28223 37.8166 6.40349 38.0749 6.54771L37.7519 9.19658H37.6479L34.757 7.9213C34.128 7.98468 33.5848 9.01193 33.5848 9.94113C33.5848 11.1356 34.4968 11.7993 36.0484 11.7993H38.7376C38.8994 8.69001 40.6362 6.28223 42.8003 6.28223C43.3083 6.28223 43.9143 6.40349 44.1969 6.54771L43.8508 9.17362H43.7468L41.1797 7.96076C40.5911 8.0184 40.1295 8.88972 40.1295 9.84212C40.1295 11.1337 40.978 11.8033 42.617 11.8033H48.7978L48.6357 12.9595V20.8045L49.5476 21.7567V21.8375H44.5212V21.7567L45.4503 20.764V12.5438H41.9127V20.7672L43.1247 21.7373V21.8411H37.7911V21.7373L38.7202 20.7447V12.5438H35.3456V20.7672L36.5573 21.7373V21.8411H31.2477L31.2482 21.8348ZM45.3118 7.88087C45.3118 6.8883 45.9754 6.28223 47.0489 6.28223C48.1395 6.28223 48.809 6.8883 48.809 7.88087C48.809 8.85049 48.1392 9.45633 47.0489 9.45633C45.9754 9.45633 45.3118 8.85049 45.3118 7.88087ZM55.1454 20.7672L56.0571 21.7373V21.8411H51.0422V21.7373L51.9542 20.7677V13.2575L50.8807 12.1843V12.0803L54.701 11.0877H54.903L55.0465 12.9863H55.185C56.2927 11.711 57.4873 11.0877 58.8204 11.0877C60.621 11.0877 61.8731 12.2597 61.8731 13.9155V20.7655L62.7851 21.7351V21.8389H57.7528V21.7351L58.6819 20.7021V14.5507C58.6819 13.5582 58.0762 12.9524 57.1063 12.9524C56.4608 12.9524 55.8149 13.2118 55.1451 13.7371L55.1454 20.7672Z" fill="#BFC1C3"/>
</g>
<defs>
<clipPath id="clip0_155_947">
<rect width="62.25" height="26.975" fill="white" transform="translate(0.714355 0.853149)"/>
</clipPath>
</defs>
</svg>
