<svg width="63" height="33" viewBox="0 0 63 33" fill="none" xmlns="http://www.w3.org/2000/svg">
<g clip-path="url(#clip0_155_954)">
<path fill-rule="evenodd" clip-rule="evenodd" d="M33.4747 12.3733C32.9541 11.9354 32.0657 11.7168 30.8089 11.7168H27.9741V20.4771H30.0938V17.7315H31.0433C32.1957 17.7315 33.0408 17.4779 33.5786 16.9701C34.1844 16.4013 34.4892 15.6439 34.4892 14.6983C34.4892 13.7178 34.1509 12.9426 33.4747 12.3733ZM30.9906 15.7492H30.0938V13.6991H30.8995C31.8795 13.6991 32.3696 14.0428 32.3696 14.7303C32.3696 15.409 31.9096 15.7492 30.9906 15.7492ZM38.1164 11.7163H35.9061V20.4766H40.6784V18.4939H38.1164V11.7163ZM45.0087 11.7163L41.5369 20.4766H43.9165L44.3716 19.2031H47.3884L47.8044 20.4766H50.2109L46.7635 11.7163H45.0087ZM44.9827 17.4296L45.8932 14.4353L46.7895 17.4296H44.9827Z" fill="#BFC1C3"/>
<path fill-rule="evenodd" clip-rule="evenodd" d="M51.3149 20.4766H53.5259V11.7163H51.3149V20.4766ZM62.109 13.3583C61.8296 12.9534 61.4711 12.6094 61.055 12.3472C60.3876 11.9266 59.4771 11.7168 58.3239 11.7168H55.4116V20.4766H58.8184C60.0496 20.4766 61.0377 20.0743 61.7831 19.2686C62.5289 18.4634 62.9013 17.3947 62.9013 16.0635C62.9013 15.0047 62.6373 14.1029 62.109 13.3583ZM58.5713 18.4934H57.6222V13.6996H58.5847C59.2608 13.6996 59.7805 13.9113 60.1449 14.3334C60.5094 14.7555 60.6914 15.3543 60.6914 16.1295C60.6914 17.7054 59.9846 18.4934 58.5713 18.4934ZM10.0271 4.36157L2.8629 6.23793L0.888524 13.4425L3.35784 15.9778L0.848633 18.4712L2.70678 25.7073L9.83991 27.7004L12.3496 25.2064L14.8189 27.7413L21.9831 25.8649L23.957 18.6599L21.4881 16.1256L23.9974 13.6321L22.1392 6.39553L15.0051 4.40245L12.4964 6.89589L10.0271 4.36157ZM5.63067 7.62379L9.40456 6.63488L11.0549 8.32902L8.6481 10.7205L5.63067 7.62379ZM13.9152 8.35167L15.5921 6.6856L19.3498 7.73558L16.2831 10.7826L13.9152 8.35167ZM3.14952 12.851L4.18916 9.05644L7.20564 12.1532L4.79936 14.5447L3.14952 12.851ZM17.7009 12.2389L20.7677 9.19087L21.7457 13.0027L20.0693 14.6693L17.7009 12.2389ZM10.0665 12.1763L12.4732 9.7848L14.8406 12.2157L12.4343 14.6072L10.0665 12.1763ZM6.21819 16.0005L8.62446 13.609L10.9933 16.0399L8.58605 18.4314L6.21819 16.0005ZM13.8532 16.063L16.2595 13.6715L18.6273 16.1024L16.2205 18.4939L13.8532 16.063ZM3.09929 19.1002L4.7767 17.4331L7.14406 19.8645L4.07835 22.911L3.09929 19.1002ZM10.0044 19.8871L12.4112 17.4956L14.7791 19.9265L12.3728 22.3181L10.0044 19.8871ZM17.6389 19.9502L20.0457 17.5587L21.696 19.2523L20.6568 23.0469L17.6389 19.9502ZM5.4962 24.3678L8.56241 21.3198L10.9313 23.7507L9.25386 25.4177L5.4962 24.3678ZM13.7911 23.7738L16.1974 21.3823L19.2144 24.4795L15.441 25.468L13.7911 23.7738Z" fill="#BFC1C3"/>
</g>
<defs>
<clipPath id="clip0_155_954">
<rect width="62.25" height="31.6437" fill="white" transform="translate(0.75 0.518799)"/>
</clipPath>
</defs>
</svg>
