<svg width="124" height="12" viewBox="0 0 124 12" fill="none" xmlns="http://www.w3.org/2000/svg">
<path d="M1.88403 1.17651H3.74438L6.48364 9.0061L9.2229 1.17651H11.0833L7.23071 11.8406H5.73657L1.88403 1.17651ZM0.880615 1.17651H2.73364L3.07056 8.80835V11.8406H0.880615V1.17651ZM10.2336 1.17651H12.094V11.8406H9.89673V8.80835L10.2336 1.17651ZM16.115 3.91577V11.8406H13.9983V3.91577H16.115ZM13.8665 1.85034C13.8665 1.54272 13.9739 1.28882 14.1887 1.08862C14.4036 0.888428 14.6917 0.78833 15.053 0.78833C15.4094 0.78833 15.6951 0.888428 15.9099 1.08862C16.1296 1.28882 16.2395 1.54272 16.2395 1.85034C16.2395 2.15796 16.1296 2.41187 15.9099 2.61206C15.6951 2.81226 15.4094 2.91235 15.053 2.91235C14.6917 2.91235 14.4036 2.81226 14.1887 2.61206C13.9739 2.41187 13.8665 2.15796 13.8665 1.85034ZM22.5383 10.1121V0.590576H24.6624V11.8406H22.7507L22.5383 10.1121ZM17.5286 7.97339V7.81958C17.5286 7.21411 17.5969 6.66479 17.7336 6.17163C17.8704 5.67358 18.0706 5.24634 18.3342 4.88989C18.5979 4.53345 18.9226 4.25757 19.3083 4.06226C19.6941 3.86694 20.1335 3.76929 20.6267 3.76929C21.0906 3.76929 21.4958 3.86694 21.8425 4.06226C22.1941 4.25757 22.4919 4.53589 22.7361 4.89722C22.9851 5.25366 23.1853 5.67603 23.3367 6.16431C23.488 6.64771 23.5979 7.17749 23.6663 7.75366V8.09058C23.5979 8.64233 23.488 9.15503 23.3367 9.62866C23.1853 10.1023 22.9851 10.5173 22.7361 10.8738C22.4919 11.2253 22.1941 11.4988 21.8425 11.6941C21.491 11.8894 21.0808 11.9871 20.6121 11.9871C20.1189 11.9871 19.6794 11.887 19.2937 11.6868C18.9128 11.4866 18.5906 11.2058 18.3269 10.8445C18.0681 10.4832 17.8704 10.0583 17.7336 9.57007C17.5969 9.08179 17.5286 8.54956 17.5286 7.97339ZM19.6379 7.81958V7.97339C19.6379 8.30054 19.6624 8.60571 19.7112 8.88892C19.7649 9.17212 19.8503 9.42358 19.9675 9.64331C20.0896 9.85815 20.2458 10.0266 20.4363 10.1487C20.6316 10.2659 20.8684 10.3245 21.1467 10.3245C21.5081 10.3245 21.8059 10.2439 22.0403 10.0828C22.2747 9.91675 22.4529 9.6897 22.575 9.40161C22.7019 9.11353 22.7751 8.78149 22.7947 8.40552V7.44604C22.78 7.13843 22.7361 6.86255 22.6628 6.61841C22.5945 6.36938 22.4919 6.15698 22.3552 5.9812C22.2234 5.80542 22.0574 5.6687 21.8572 5.57104C21.6619 5.47339 21.4299 5.42456 21.1614 5.42456C20.8879 5.42456 20.6536 5.48804 20.4583 5.61499C20.2629 5.73706 20.1042 5.90552 19.9822 6.12036C19.865 6.33521 19.7771 6.58911 19.7185 6.88208C19.6648 7.17017 19.6379 7.48267 19.6379 7.81958ZM29.9578 11.9871C29.3425 11.9871 28.7908 11.8894 28.3025 11.6941C27.8142 11.4939 27.3992 11.218 27.0574 10.8665C26.7205 10.5149 26.4617 10.1072 26.281 9.64331C26.1003 9.17456 26.01 8.67651 26.01 8.14917V7.8562C26.01 7.25562 26.0955 6.7063 26.2664 6.20825C26.4373 5.71021 26.6814 5.27808 26.9988 4.91187C27.321 4.54565 27.7117 4.26489 28.1707 4.06958C28.6296 3.86938 29.1472 3.76929 29.7234 3.76929C30.2849 3.76929 30.783 3.86206 31.2175 4.04761C31.6521 4.23315 32.0159 4.49683 32.3088 4.83862C32.6067 5.18042 32.8313 5.59058 32.9827 6.06909C33.134 6.54272 33.2097 7.07007 33.2097 7.65112V8.53003H26.9109V7.12378H31.137V6.96265C31.137 6.66968 31.0833 6.40845 30.9758 6.17896C30.8733 5.94458 30.717 5.75903 30.5071 5.62231C30.2971 5.4856 30.0286 5.41724 29.7014 5.41724C29.4231 5.41724 29.1838 5.47827 28.9836 5.60034C28.7834 5.72241 28.6199 5.89331 28.4929 6.11304C28.3708 6.33276 28.2781 6.59155 28.2146 6.8894C28.156 7.18237 28.1267 7.50464 28.1267 7.8562V8.14917C28.1267 8.46655 28.1707 8.75952 28.2585 9.02808C28.3513 9.29663 28.4807 9.52856 28.6467 9.72388C28.8176 9.91919 29.0227 10.0706 29.262 10.178C29.5061 10.2854 29.782 10.3391 30.0896 10.3391C30.4705 10.3391 30.8245 10.2659 31.1516 10.1194C31.4836 9.96802 31.7693 9.74097 32.0085 9.43823L33.0339 10.5515C32.8679 10.7908 32.6409 11.0203 32.3528 11.24C32.0696 11.4597 31.7278 11.6404 31.3274 11.782C30.927 11.9187 30.4705 11.9871 29.9578 11.9871ZM42.4309 8.03931H39.7136V6.32544H42.4309C42.8508 6.32544 43.1926 6.25708 43.4563 6.12036C43.72 5.97876 43.9128 5.78345 44.0349 5.53442C44.157 5.2854 44.218 5.00464 44.218 4.69214C44.218 4.37476 44.157 4.07935 44.0349 3.80591C43.9128 3.53247 43.72 3.31274 43.4563 3.14673C43.1926 2.98071 42.8508 2.89771 42.4309 2.89771H40.4753V11.8406H38.2781V1.17651H42.4309C43.2659 1.17651 43.9812 1.32788 44.5769 1.63062C45.1775 1.92847 45.6365 2.34106 45.9539 2.86841C46.2712 3.39575 46.4299 3.99878 46.4299 4.67749C46.4299 5.36597 46.2712 5.96167 45.9539 6.4646C45.6365 6.96753 45.1775 7.35571 44.5769 7.62915C43.9812 7.90259 43.2659 8.03931 42.4309 8.03931ZM49.9236 5.64429V11.8406H47.8142V3.91577H49.7991L49.9236 5.64429ZM52.3113 3.8645L52.2747 5.82007C52.1721 5.80542 52.0476 5.79321 51.9011 5.78345C51.7595 5.7688 51.6301 5.76147 51.5129 5.76147C51.2151 5.76147 50.9563 5.80054 50.7366 5.87866C50.5217 5.9519 50.3411 6.06177 50.1946 6.20825C50.053 6.35474 49.9456 6.53296 49.8723 6.74292C49.804 6.95288 49.7649 7.19214 49.7551 7.46069L49.3303 7.32886C49.3303 6.81616 49.3816 6.34497 49.4841 5.91528C49.5867 5.48071 49.7356 5.10229 49.9309 4.78003C50.1311 4.45776 50.3752 4.20874 50.6633 4.03296C50.9514 3.85718 51.281 3.76929 51.6521 3.76929C51.7693 3.76929 51.8889 3.77905 52.011 3.79858C52.1331 3.81323 52.2332 3.83521 52.3113 3.8645ZM56.8083 11.9871C56.1931 11.9871 55.6414 11.8894 55.1531 11.6941C54.6648 11.4939 54.2498 11.218 53.908 10.8665C53.571 10.5149 53.3123 10.1072 53.1316 9.64331C52.9509 9.17456 52.8606 8.67651 52.8606 8.14917V7.8562C52.8606 7.25562 52.946 6.7063 53.1169 6.20825C53.2878 5.71021 53.532 5.27808 53.8494 4.91187C54.1716 4.54565 54.5623 4.26489 55.0212 4.06958C55.4802 3.86938 55.9978 3.76929 56.574 3.76929C57.1355 3.76929 57.6335 3.86206 58.0681 4.04761C58.5027 4.23315 58.8665 4.49683 59.1594 4.83862C59.4573 5.18042 59.6819 5.59058 59.8333 6.06909C59.9846 6.54272 60.0603 7.07007 60.0603 7.65112V8.53003H53.7615V7.12378H57.9875V6.96265C57.9875 6.66968 57.9338 6.40845 57.8264 6.17896C57.7239 5.94458 57.5676 5.75903 57.3577 5.62231C57.1477 5.4856 56.8792 5.41724 56.552 5.41724C56.2737 5.41724 56.0344 5.47827 55.8342 5.60034C55.634 5.72241 55.4705 5.89331 55.3435 6.11304C55.2214 6.33276 55.1287 6.59155 55.0652 6.8894C55.0066 7.18237 54.9773 7.50464 54.9773 7.8562V8.14917C54.9773 8.46655 55.0212 8.75952 55.1091 9.02808C55.2019 9.29663 55.3313 9.52856 55.4973 9.72388C55.6682 9.91919 55.8733 10.0706 56.1125 10.178C56.3567 10.2854 56.6326 10.3391 56.9402 10.3391C57.321 10.3391 57.675 10.2659 58.0022 10.1194C58.3342 9.96802 58.6199 9.74097 58.8591 9.43823L59.8845 10.5515C59.7185 10.7908 59.4915 11.0203 59.2034 11.24C58.9202 11.4597 58.5784 11.6404 58.178 11.782C57.7776 11.9187 57.321 11.9871 56.8083 11.9871ZM63.3708 5.5564V11.8406H61.2542V3.91577H63.239L63.3708 5.5564ZM63.0779 7.59985H62.4919C62.4919 7.0481 62.5579 6.54028 62.6897 6.07642C62.8264 5.60767 63.0242 5.20239 63.283 4.8606C63.5466 4.51392 63.8713 4.24536 64.2571 4.05493C64.6428 3.8645 65.0896 3.76929 65.5974 3.76929C65.949 3.76929 66.2712 3.823 66.5642 3.93042C66.8572 4.03296 67.1086 4.19653 67.3186 4.42114C67.5334 4.64087 67.6995 4.92896 67.8167 5.2854C67.9338 5.63696 67.9924 6.05933 67.9924 6.55249V11.8406H65.8831V6.78687C65.8831 6.42554 65.8342 6.14722 65.7366 5.9519C65.6389 5.75659 65.4998 5.61987 65.3191 5.54175C65.1433 5.46362 64.9309 5.42456 64.6819 5.42456C64.4084 5.42456 64.1692 5.48071 63.9641 5.59302C63.7639 5.70532 63.5979 5.86157 63.4661 6.06177C63.3342 6.25708 63.2366 6.48657 63.1731 6.75024C63.1096 7.01392 63.0779 7.29712 63.0779 7.59985ZM67.7947 7.35815L67.0403 7.45337C67.0403 6.93579 67.1038 6.45483 67.2307 6.0105C67.3625 5.56616 67.5554 5.17554 67.8093 4.83862C68.0681 4.50171 68.3879 4.24048 68.7688 4.05493C69.1497 3.8645 69.5891 3.76929 70.0872 3.76929C70.468 3.76929 70.8147 3.82544 71.1272 3.93774C71.4397 4.04517 71.7058 4.21851 71.9255 4.45776C72.1501 4.69214 72.321 4.99976 72.4382 5.38062C72.5603 5.76147 72.6213 6.22778 72.6213 6.77954V11.8406H70.5046V6.77954C70.5046 6.41333 70.4558 6.13501 70.3582 5.94458C70.2654 5.74927 70.1287 5.61499 69.948 5.54175C69.7722 5.46362 69.5623 5.42456 69.3181 5.42456C69.0642 5.42456 68.842 5.47583 68.6516 5.57837C68.4612 5.67603 68.3025 5.81274 68.1755 5.98853C68.0486 6.16431 67.9534 6.36938 67.8899 6.60376C67.8264 6.83325 67.7947 7.08472 67.7947 7.35815ZM76.4812 3.91577V11.8406H74.3645V3.91577H76.4812ZM74.2327 1.85034C74.2327 1.54272 74.3401 1.28882 74.5549 1.08862C74.7698 0.888428 75.0579 0.78833 75.4192 0.78833C75.7756 0.78833 76.0613 0.888428 76.2761 1.08862C76.4958 1.28882 76.6057 1.54272 76.6057 1.85034C76.6057 2.15796 76.4958 2.41187 76.2761 2.61206C76.0613 2.81226 75.7756 2.91235 75.4192 2.91235C75.0579 2.91235 74.7698 2.81226 74.5549 2.61206C74.3401 2.41187 74.2327 2.15796 74.2327 1.85034ZM82.9119 9.9436V3.91577H85.0212V11.8406H83.0364L82.9119 9.9436ZM83.1462 8.31763L83.7688 8.30298C83.7688 8.83032 83.7078 9.32104 83.5857 9.77515C83.4636 10.2244 83.2805 10.615 83.0364 10.947C82.7922 11.2742 82.4846 11.5305 82.1135 11.7161C81.7424 11.8967 81.3054 11.9871 80.8025 11.9871C80.4167 11.9871 80.0603 11.9333 79.7332 11.8259C79.4109 11.7136 79.1326 11.5403 78.8982 11.3059C78.6687 11.0667 78.488 10.7615 78.3562 10.3904C78.2292 10.0144 78.1658 9.56274 78.1658 9.0354V3.91577H80.2751V9.05005C80.2751 9.28442 80.302 9.48218 80.3557 9.64331C80.4143 9.80444 80.4949 9.93628 80.5974 10.0388C80.7 10.1414 80.8196 10.2146 80.9563 10.2585C81.0979 10.3025 81.2542 10.3245 81.425 10.3245C81.8596 10.3245 82.2014 10.2366 82.4504 10.0608C82.7043 9.88501 82.8826 9.64575 82.9851 9.34302C83.0925 9.0354 83.1462 8.6936 83.1462 8.31763ZM88.7419 5.5564V11.8406H86.6252V3.91577H88.6101L88.7419 5.5564ZM88.449 7.59985H87.863C87.863 7.0481 87.929 6.54028 88.0608 6.07642C88.1975 5.60767 88.3953 5.20239 88.6541 4.8606C88.9177 4.51392 89.2424 4.24536 89.6282 4.05493C90.0139 3.8645 90.4607 3.76929 90.9685 3.76929C91.3201 3.76929 91.6423 3.823 91.9353 3.93042C92.2283 4.03296 92.4797 4.19653 92.6897 4.42114C92.9045 4.64087 93.0706 4.92896 93.1877 5.2854C93.3049 5.63696 93.3635 6.05933 93.3635 6.55249V11.8406H91.2542V6.78687C91.2542 6.42554 91.2053 6.14722 91.1077 5.9519C91.01 5.75659 90.8708 5.61987 90.6902 5.54175C90.5144 5.46362 90.302 5.42456 90.053 5.42456C89.7795 5.42456 89.5403 5.48071 89.3352 5.59302C89.135 5.70532 88.969 5.86157 88.8372 6.06177C88.7053 6.25708 88.6077 6.48657 88.5442 6.75024C88.4807 7.01392 88.449 7.29712 88.449 7.59985ZM93.1658 7.35815L92.4114 7.45337C92.4114 6.93579 92.4749 6.45483 92.6018 6.0105C92.7336 5.56616 92.9265 5.17554 93.1804 4.83862C93.4392 4.50171 93.759 4.24048 94.1399 4.05493C94.5208 3.8645 94.9602 3.76929 95.4583 3.76929C95.8391 3.76929 96.1858 3.82544 96.4983 3.93774C96.8108 4.04517 97.0769 4.21851 97.2966 4.45776C97.5212 4.69214 97.6921 4.99976 97.8093 5.38062C97.9314 5.76147 97.9924 6.22778 97.9924 6.77954V11.8406H95.8757V6.77954C95.8757 6.41333 95.8269 6.13501 95.7292 5.94458C95.6365 5.74927 95.4998 5.61499 95.3191 5.54175C95.1433 5.46362 94.9333 5.42456 94.6892 5.42456C94.4353 5.42456 94.2131 5.47583 94.0227 5.57837C93.8323 5.67603 93.6736 5.81274 93.5466 5.98853C93.4197 6.16431 93.3245 6.36938 93.261 6.60376C93.1975 6.83325 93.1658 7.08472 93.1658 7.35815ZM110.348 10.1267V11.8406H104.98V10.1267H110.348ZM105.69 1.17651V11.8406H103.493V1.17651H105.69ZM115.358 3.91577V5.40991H110.744V3.91577H115.358ZM111.886 1.96021H113.996V9.45288C113.996 9.68237 114.025 9.85815 114.084 9.98022C114.147 10.1023 114.24 10.1877 114.362 10.2366C114.484 10.2805 114.638 10.3025 114.823 10.3025C114.955 10.3025 115.073 10.2976 115.175 10.2878C115.282 10.2732 115.373 10.2585 115.446 10.2439L115.453 11.7966C115.273 11.8552 115.077 11.9016 114.867 11.9358C114.657 11.97 114.426 11.9871 114.172 11.9871C113.708 11.9871 113.302 11.9114 112.956 11.76C112.614 11.6038 112.35 11.3547 112.165 11.0129C111.979 10.6711 111.886 10.2219 111.886 9.66528V1.96021ZM121.24 10.1121V0.590576H123.364V11.8406H121.452L121.24 10.1121ZM116.23 7.97339V7.81958C116.23 7.21411 116.298 6.66479 116.435 6.17163C116.572 5.67358 116.772 5.24634 117.035 4.88989C117.299 4.53345 117.624 4.25757 118.01 4.06226C118.395 3.86694 118.835 3.76929 119.328 3.76929C119.792 3.76929 120.197 3.86694 120.544 4.06226C120.895 4.25757 121.193 4.53589 121.437 4.89722C121.686 5.25366 121.886 5.67603 122.038 6.16431C122.189 6.64771 122.299 7.17749 122.367 7.75366V8.09058C122.299 8.64233 122.189 9.15503 122.038 9.62866C121.886 10.1023 121.686 10.5173 121.437 10.8738C121.193 11.2253 120.895 11.4988 120.544 11.6941C120.192 11.8894 119.782 11.9871 119.313 11.9871C118.82 11.9871 118.381 11.887 117.995 11.6868C117.614 11.4866 117.292 11.2058 117.028 10.8445C116.769 10.4832 116.572 10.0583 116.435 9.57007C116.298 9.08179 116.23 8.54956 116.23 7.97339ZM118.339 7.81958V7.97339C118.339 8.30054 118.364 8.60571 118.412 8.88892C118.466 9.17212 118.552 9.42358 118.669 9.64331C118.791 9.85815 118.947 10.0266 119.137 10.1487C119.333 10.2659 119.57 10.3245 119.848 10.3245C120.209 10.3245 120.507 10.2439 120.741 10.0828C120.976 9.91675 121.154 9.6897 121.276 9.40161C121.403 9.11353 121.476 8.78149 121.496 8.40552V7.44604C121.481 7.13843 121.437 6.86255 121.364 6.61841C121.296 6.36938 121.193 6.15698 121.056 5.9812C120.925 5.80542 120.759 5.6687 120.558 5.57104C120.363 5.47339 120.131 5.42456 119.863 5.42456C119.589 5.42456 119.355 5.48804 119.159 5.61499C118.964 5.73706 118.805 5.90552 118.683 6.12036C118.566 6.33521 118.478 6.58911 118.42 6.88208C118.366 7.17017 118.339 7.48267 118.339 7.81958Z" fill="#BFC1C3"/>
</svg>
