<svg width="74" height="15" viewBox="0 0 74 15" fill="none" xmlns="http://www.w3.org/2000/svg">
<g clip-path="url(#clip0_155_937)">
<path d="M71.3075 2.51228H73.5178V12.1341H71.1942L67.7372 5.94662V12.1341H65.5131V2.51228H67.8364L71.3075 8.77075V2.51228ZM56.7571 2.25684C59.9449 2.25684 61.8292 4.6694 61.8292 7.30903C61.8292 9.94862 59.9308 12.3612 56.7571 12.3612C53.555 12.3612 51.6708 9.94862 51.6708 7.30903C51.6708 4.68359 53.5692 2.25684 56.7571 2.25684ZM59.5767 7.32319C59.5767 5.74795 58.4997 4.27203 56.7712 4.27203C55.0144 4.27203 53.9661 5.74795 53.9661 7.32319C53.9661 8.89847 55.0286 10.3744 56.7712 10.3744C58.4997 10.3602 59.5767 8.89847 59.5767 7.32319ZM20.8838 4.42814V2.51228H27.4578V4.42814H25.2759V12.1199H23.0515V4.42814H20.8838ZM44.4311 6.4859H48.0722V8.23148H44.4453V10.346H48.0722V12.1341H42.2208V2.51228H48.0722V4.30041H44.4453V6.4859H44.4311ZM34.9384 2.51228C37.0636 2.51228 38.4378 4.11592 38.4378 5.98922C38.4378 7.33739 37.7297 8.52949 36.5253 9.09713L38.4519 12.1341H35.8735L34.1734 9.46614H33.125V12.1341H30.9006V2.51228H34.9384ZM36.1852 5.98922C36.1852 5.09514 35.576 4.3288 34.6551 4.3288H33.1391V7.64961H34.6551C35.5902 7.64961 36.1852 6.88327 36.1852 5.98922ZM16.5343 10.9562H13.1198L12.7514 12.1199H10.3853L13.814 2.49809H15.8542L19.3253 12.1199H16.9168L16.5343 10.9562ZM14.8341 5.25125L13.6582 9.21068H15.9959L14.8341 5.25125ZM4.91654 2.51228C7.04173 2.51228 8.41601 4.11592 8.41601 5.98922C8.41601 7.86247 7.04173 9.46614 4.91654 9.46614H3.11719V12.1341H0.892822V2.51228H4.91654ZM6.17749 5.98922C6.17749 5.09514 5.56824 4.3288 4.64732 4.3288H3.11719V7.64961H4.63315C5.56824 7.64961 6.17749 6.88327 6.17749 5.98922Z" fill="#BFC1C3"/>
</g>
<defs>
<clipPath id="clip0_155_937">
<rect width="72.625" height="14.525" fill="white" transform="translate(0.892822 0.078125)"/>
</clipPath>
</defs>
</svg>
