<svg width="84" height="22" viewBox="0 0 84 22" fill="none" xmlns="http://www.w3.org/2000/svg">
<g clip-path="url(#clip0_155_951)">
<path d="M23.6815 6.15298L23.6519 6.16286V10.5796H19.4624V6.16286L19.4328 6.15298C18.8103 6.02453 18.1977 6.02453 17.5851 6.15298L17.5554 6.16286V16.3203L17.5851 16.3302C17.8914 16.3894 18.1977 16.429 18.5039 16.429C18.8103 16.429 19.1166 16.3993 19.4328 16.3302L19.4624 16.3203V12.2H23.6519V16.3203L23.6815 16.3302C24.2941 16.4586 24.9166 16.4586 25.5292 16.3302L25.5588 16.3203V6.16286L25.5292 6.15298C24.9067 6.03441 24.2941 6.03441 23.6815 6.15298ZM30.1732 9.00854C27.9796 9.00854 26.6753 10.3918 26.6753 12.7138C26.6753 13.9193 26.952 14.8777 27.5053 15.5397C28.1081 16.261 29.0072 16.6266 30.2028 16.6266C32.2283 16.6266 33.2658 15.4211 33.3943 14.2256V14.1959L33.3646 14.186C32.8508 14.0181 32.3766 13.9785 31.8134 14.0576H31.7936V14.0773C31.675 14.7888 31.0822 15.2137 30.2225 15.2137C29.0171 15.2137 28.4242 14.5517 28.4045 13.1881H33.503V13.1585C33.6512 11.8146 33.3844 10.7278 32.7323 9.98673C32.1296 9.35436 31.2502 9.00854 30.1732 9.00854ZM30.1534 10.3227C30.6573 10.3227 31.0822 10.4807 31.3687 10.7871C31.6651 11.1032 31.8134 11.5775 31.7837 12.1407H28.4045C28.4341 10.9847 29.0764 10.3227 30.1534 10.3227ZM34.7381 6.15298L34.7084 6.16286V16.3203L34.7381 16.3302C35.0246 16.3894 35.3112 16.429 35.6076 16.429C35.8941 16.429 36.1905 16.3993 36.4771 16.3302L36.5067 16.3203V6.16286L36.4771 6.15298C35.904 6.02453 35.321 6.03441 34.7381 6.15298ZM41.5064 9.00854C40.7456 9.00854 39.9452 9.30493 39.1844 9.86813L39.0757 9.3346L39.0559 9.32472C38.6212 9.19624 38.2655 9.19624 37.8406 9.32472L37.8209 9.3346V19.4426L37.8505 19.4525C38.1371 19.5118 38.4236 19.5513 38.72 19.5513C39.0164 19.5513 39.303 19.5216 39.5895 19.4525L39.6191 19.4426V16.0634C40.2219 16.4487 40.8641 16.6266 41.5854 16.6266C43.5811 16.6266 44.7768 15.2137 44.7768 12.8324C44.7672 10.4116 43.5811 9.00854 41.5064 9.00854ZM39.5895 11.0143C40.1231 10.6487 40.6171 10.4807 41.1507 10.4807C42.366 10.4807 43.028 11.3206 43.028 12.862C43.028 14.3738 42.376 15.1741 41.1309 15.1741C40.5973 15.1741 40.0934 15.0062 39.5895 14.6504V11.0143ZM52.3949 10.8562C52.0886 10.7376 51.8118 10.6389 51.5454 10.5499C50.1618 10.0559 49.3318 9.75948 49.3123 9.00854C49.3023 8.66267 49.4111 8.36628 49.648 8.11923C49.9941 7.76354 50.5768 7.57579 51.2885 7.57579C51.9899 7.57579 52.5335 7.76354 52.8593 8.10936C53.1361 8.40579 53.2548 8.81091 53.2249 9.31481V9.34448L53.2548 9.35436C53.8574 9.47292 54.46 9.46304 55.1123 9.31481L55.1418 9.30493V9.2753C55.1812 8.42554 54.9243 7.68448 54.4006 7.13118C53.7486 6.43952 52.7012 6.07393 51.3773 6.06405H51.3379C48.8774 6.06405 47.3954 7.16081 47.3755 8.99866C47.3655 10.8266 49.0455 11.4392 50.0531 11.7949L50.2016 11.8542C50.5374 11.9728 50.8536 12.0814 51.1304 12.1803C52.4937 12.6545 53.3137 12.9411 53.3436 13.6623C53.3536 14.0378 53.2448 14.3441 53.0174 14.5813C52.6912 14.9172 52.1185 15.0852 51.3574 15.0753C50.5175 15.0753 49.8755 14.8579 49.5098 14.4627C49.243 14.1663 49.1343 13.7908 49.1737 13.3363V13.3066L49.1442 13.2968C48.5317 13.1782 47.9092 13.1881 47.2966 13.3264L47.2767 13.3363V13.366C47.2273 14.186 47.4743 14.9172 48.0079 15.4804C48.7193 16.2412 49.8854 16.6365 51.3873 16.6266C52.8593 16.6266 55.28 16.2314 55.2999 13.6623C55.2705 11.953 53.808 11.3997 52.3949 10.8562ZM59.7168 10.4807C60.9319 10.4807 61.2187 11.2712 61.278 11.7356V11.7653H61.3075C61.8706 11.8542 62.4043 11.8146 62.9181 11.6664L62.9475 11.6566V11.6269C62.8982 10.9155 62.5919 10.2732 62.0881 9.80886C61.515 9.28517 60.6949 8.99866 59.7267 8.99866C57.4143 8.99866 56.1399 10.3523 56.1399 12.8126C56.1399 15.263 57.4044 16.6167 59.6968 16.6167C60.685 16.6167 61.515 16.3302 62.098 15.7867C62.5819 15.3322 62.8786 14.7196 62.9376 14.0576V14.028L62.9081 14.0181C62.4238 13.8501 61.8905 13.8205 61.3075 13.9193H61.2875V13.939C61.1294 15.0457 60.0525 15.1247 59.7267 15.1247C58.4817 15.1247 57.8986 14.3837 57.8986 12.7928C57.8887 11.2218 58.4718 10.4807 59.7168 10.4807ZM67.325 9.00854C65.0524 9.00854 63.7975 10.3622 63.7975 12.8225C63.7975 15.2729 65.0524 16.6266 67.325 16.6266C69.5975 16.6266 70.8525 15.2729 70.8525 12.8225C70.8525 10.3622 69.5975 9.00854 67.325 9.00854ZM69.1331 12.8324C69.1331 14.4034 68.5401 15.1642 67.325 15.1642C66.1094 15.1642 65.5168 14.4034 65.5168 12.8324C65.5168 11.2317 66.0899 10.4807 67.325 10.4807C68.5401 10.4807 69.1331 11.2514 69.1331 12.8324ZM76.5438 9.3346L76.5139 9.34448V14.4034C75.9408 14.8975 75.417 15.1148 74.8145 15.1148C73.9645 15.1148 73.5989 14.6307 73.5989 13.4845V9.3346L73.5695 9.32472C72.9963 9.18636 72.4133 9.18636 71.8306 9.32472L71.8007 9.3346V13.8896C71.8007 15.6187 72.7295 16.6167 74.36 16.6167C75.2295 16.6167 75.9902 16.2807 76.8102 15.5298L76.9783 16.3203L76.9982 16.3302C77.4132 16.4389 77.8477 16.4389 78.2627 16.3302L78.2926 16.3203V9.3346L78.2627 9.32472C77.7095 9.18636 77.1264 9.18636 76.5438 9.3346ZM83.7664 14.9666L83.7565 14.937L83.727 14.9469C83.0352 15.105 82.6302 15.0951 82.3932 14.9073C82.1952 14.7492 82.1064 14.4726 82.1064 14.0378V10.7969H83.5095L83.5195 10.7673C83.6183 10.293 83.6183 9.80886 83.5195 9.32472L83.5095 9.29505H82.1064V7.37821L82.077 7.36833C81.5038 7.23985 80.9208 7.23985 80.3477 7.36833L80.3182 7.37821L80.3277 9.29505H79.4388L79.4288 9.32472C79.3201 9.79899 79.3201 10.293 79.4288 10.7673L79.4388 10.7969H80.3277L80.3377 13.9094C80.3377 14.7789 80.3871 15.6583 80.9901 16.1622C81.3159 16.429 81.7902 16.5673 82.4027 16.5673C82.7783 16.5673 83.2132 16.5179 83.717 16.4191H83.737L83.7465 16.3993C83.8851 15.9349 83.8951 15.4508 83.7664 14.9666Z" fill="#BFC1C3"/>
<path d="M1.83513 12.6446L6.63718 7.84258C7.25968 7.22995 7.64501 6.37035 7.64501 5.43167C7.64501 4.50288 7.26956 3.65313 6.66681 3.04053L1.86477 7.84258C1.24228 8.4552 0.856934 9.31483 0.856934 10.2535C0.856934 11.1922 1.2324 12.032 1.83513 12.6446ZM13.4648 9.83848L8.66275 14.6406C8.04025 15.2531 7.65488 16.1128 7.65488 17.0515C7.65488 17.9802 8.03038 18.83 8.63308 19.4426L13.4352 14.6406C14.0576 14.0279 14.443 13.1683 14.443 12.2296C14.443 11.291 14.0675 10.4511 13.4648 9.83848ZM13.4352 7.85245C14.0576 7.23987 14.443 6.38023 14.443 5.44155C14.443 4.51276 14.0675 3.66301 13.4648 3.05041L1.86477 14.6406C1.24228 15.263 0.856934 16.1128 0.856934 17.0613C0.856934 17.9901 1.2324 18.8399 1.83513 19.4525L13.4352 7.85245Z" fill="#BFC1C3"/>
</g>
<defs>
<clipPath id="clip0_155_951">
<rect width="83" height="20.75" fill="white" transform="translate(0.856934 0.965576)"/>
</clipPath>
</defs>
</svg>
