<svg width="84" height="22" viewBox="0 0 84 22" fill="none" xmlns="http://www.w3.org/2000/svg">
<g clip-path="url(#clip0_155_944)">
<path fill-rule="evenodd" clip-rule="evenodd" d="M15.2639 17.9381C14.0157 19.1863 12.105 19.1863 8.66636 19.1863C5.22847 19.1863 3.31767 19.1856 2.06877 17.9381C0.821289 16.6899 0.821289 14.7784 0.821289 11.3405C0.821289 7.90337 0.821289 5.99113 2.06877 4.74365C3.31767 3.49475 5.22847 3.49475 8.66636 3.49475C12.105 3.49475 14.0157 3.49475 15.2639 4.74365C16.5128 5.99185 16.5128 7.90263 16.5128 11.3405C16.5128 14.7784 16.5128 16.6899 15.2639 17.9381ZM9.4167 10.3327L4.68069 10.3234L4.67998 11.4896L9.14995 11.4981L8.88674 12.6622L4.67998 12.6536V13.8191L8.62354 13.8276H8.61714C8.46452 14.4154 8.89459 14.9981 9.48517 14.9981H10.304L10.7562 13.8276H8.62354L8.88674 12.6636L11.5671 12.6686L11.983 11.5031L9.15565 11.4981L9.42025 10.3327L13.2475 10.3142L13.7219 9.1537L9.68486 9.16724L9.4167 10.3327ZM8.99514 7.99752L4.68069 7.98823L4.67998 9.1544L9.68416 9.16299L9.72909 8.9597C9.84108 8.46897 9.48302 7.99752 8.99514 7.99752Z" fill="#BFC1C3"/>
<path d="M28.7148 15.8764H30.7204L30.9144 14.677H31.2792C31.5709 15.5586 32.3606 15.9987 33.1755 15.9987C34.8641 15.9987 35.8977 14.8978 35.8977 12.5491C35.8977 10.4812 35.0465 9.09949 33.2233 9.09949C32.349 9.09949 31.5709 9.62495 31.2792 10.4074H30.9144L31.036 8.57254V6.70081H28.7148V15.8764ZM31.036 12.7568V12.3529C31.036 11.496 31.5101 10.9705 32.3366 10.9705C33.0539 10.9705 33.5396 11.289 33.5396 12.1083V13.0014C33.5396 13.6746 33.2117 14.127 32.3482 14.127C31.4862 14.127 31.036 13.6008 31.036 12.7568ZM36.505 12.5607C36.505 14.6286 37.8542 15.9987 39.9076 15.9987C41.6099 15.9987 42.8607 15.0932 43.0316 13.6992H40.8195C40.7588 14.0778 40.3701 14.2978 39.8352 14.2978C39.288 14.2978 38.8378 13.9561 38.8378 13.4415V13.0992H42.9585C43.0316 12.843 43.0552 12.4876 43.0552 12.1452C43.0552 10.1635 41.6338 9.09875 39.8352 9.09875C37.9635 9.09875 36.505 10.3466 36.505 12.5607ZM38.8378 11.7044V11.5705C38.8378 11.1297 39.2511 10.8112 39.8106 10.8112C40.3701 10.8112 40.7349 11.1297 40.7349 11.5705V11.7044H38.8378ZM48.4671 9.18414C47.7259 9.18414 47.1544 9.61264 46.9719 10.6766H46.6072L46.3277 9.22106H43.2769V11.0928H44.2865V15.8764H46.6076V13.1607C46.6076 11.7659 47.4707 11.3744 48.4543 11.3744C48.5889 11.3744 48.7227 11.3867 48.8681 11.399V9.22106C48.7363 9.1943 48.6017 9.18199 48.4671 9.18414ZM49.485 9.22106V17.9197H51.8061V16.5249L51.6843 14.6894H52.0493C52.3408 15.4725 53.1192 15.9987 53.9942 15.9987C55.8165 15.9987 56.668 14.6163 56.668 12.5491C56.668 10.2004 55.6344 9.09949 53.9447 9.09949C53.1312 9.09949 52.3408 9.53955 52.0493 10.4197H51.6843L51.4898 9.22106H49.485ZM51.8061 12.3406C51.8061 11.4967 52.2562 10.9712 53.1192 10.9712C53.9818 10.9712 54.3097 11.4236 54.3097 12.096V12.9891C54.3097 13.8092 53.8241 14.127 53.1068 14.127C52.2801 14.127 51.8061 13.6008 51.8061 12.7445V12.3406ZM59.5507 14.0662V6.70081H57.2411V14.1031C57.2411 15.1671 57.6673 15.8771 59.0036 15.8771H61.0575V14.0669H59.5507V14.0662ZM61.4849 14.0039C61.4849 15.2279 62.3715 15.9987 63.7329 15.9987C64.8627 15.9987 65.6531 15.4725 65.9087 14.6894H66.2357V15.8764H68.6675V14.1632H67.828V11.5097C67.828 10.0665 67.0021 9.09949 64.8871 9.09949C62.9425 9.09949 61.8128 9.94341 61.885 11.5828H64.012C63.9753 11.032 64.304 10.8489 64.778 10.8489C65.2273 10.8489 65.5184 11.032 65.5184 11.4974V11.9621L63.6722 12.0844C62.3715 12.1705 61.4841 12.7814 61.4841 14.0054L61.4849 14.0039ZM63.8176 13.6869C63.8176 13.4299 64.0005 13.1853 64.4138 13.1607L65.5193 13.0869V13.8577C65.3367 14.1393 64.9721 14.3224 64.5224 14.3224C64.036 14.3224 63.8184 14.1147 63.8184 13.8331L63.8176 13.6869ZM69.3711 15.8764H71.6931V12.316C71.6931 11.5336 72.0816 10.9828 72.8592 10.9828C73.5158 10.9828 73.8804 11.362 73.8804 12.1821V15.8764H76.213V11.362C76.213 10.0042 75.4727 9.09875 74.1475 9.09875C73.1268 9.09875 72.3975 9.57573 72.0573 10.4074H71.6931L71.4131 9.22106H69.3711V15.8764ZM76.9588 12.5607C76.9588 14.6286 78.3087 15.9987 80.3626 15.9987C82.0635 15.9987 83.3159 15.0932 83.4861 13.6992H81.274C81.2133 14.0778 80.8247 14.2978 80.2895 14.2978C79.7424 14.2978 79.2931 13.9561 79.2931 13.4415V13.0992H83.4134C83.4861 12.843 83.5104 12.4876 83.5104 12.1452C83.5104 10.1635 82.0883 9.09875 80.2895 9.09875C78.4181 9.09875 76.9588 10.3466 76.9588 12.5607ZM79.2931 11.7044V11.5705C79.2931 11.1297 79.7065 10.8112 80.2652 10.8112C80.8247 10.8112 81.1893 11.1297 81.1893 11.5705V11.7044H79.2931ZM23.3536 9.2218H27.9345V15.8764H25.6025V11.0921H23.3536V15.8757H21.0208V11.0921H19.8164V9.2218H21.0208V8.64852C21.0208 8.49363 21.023 8.38003 21.0266 8.30835C21.0309 8.23307 21.0432 8.1397 21.0628 8.02751C21.0859 7.91606 21.1221 7.79664 21.1692 7.66925C21.403 7.0229 21.9986 6.70153 22.9555 6.70153H24.8482V8.51102H23.3536V9.2218ZM25.614 8.51102V6.70081H27.9345V8.51102H25.614Z" fill="#BFC1C3"/>
</g>
<defs>
<clipPath id="clip0_155_944">
<rect width="83" height="20.75" fill="white" transform="translate(0.821289 0.965576)"/>
</clipPath>
</defs>
</svg>
