<svg width="74" height="33" viewBox="0 0 74 33" fill="none" xmlns="http://www.w3.org/2000/svg">
<g clip-path="url(#clip0_155_939)">
<path d="M38.6858 10.597C38.6858 11.4137 38.0278 12.0717 37.2108 12.0717C36.3941 12.0717 35.7361 11.4137 35.7361 10.597C35.7361 9.78019 36.3714 9.12224 37.2108 9.12224C38.0503 9.14494 38.6858 9.80288 38.6858 10.597ZM32.6052 13.5691C32.6052 13.7052 32.6052 13.9321 32.6052 13.9321C32.6052 13.9321 31.9018 13.0246 30.4044 13.0246C27.9314 13.0246 26.0029 14.9077 26.0029 17.5169C26.0029 20.1033 27.9087 22.0091 30.4044 22.0091C31.9245 22.0091 32.6052 21.0789 32.6052 21.0789V21.4646C32.6052 21.6461 32.7413 21.7823 32.9228 21.7823H34.7605V13.2515C34.7605 13.2515 33.0816 13.2515 32.9228 13.2515C32.7413 13.2515 32.6052 13.4103 32.6052 13.5691ZM32.6052 19.037C32.2649 19.5361 31.5842 19.9672 30.7674 19.9672C29.3154 19.9672 28.2037 19.0597 28.2037 17.5169C28.2037 15.9741 29.3154 15.0666 30.7674 15.0666C31.5615 15.0666 32.2875 15.5203 32.6052 15.9968V19.037ZM36.1219 13.2515H38.2998V21.7823H36.1219V13.2515ZM68.6567 13.0246C67.1595 13.0246 66.4561 13.9321 66.4561 13.9321V9.14494H64.2781V21.7823C64.2781 21.7823 65.9568 21.7823 66.1155 21.7823C66.2971 21.7823 66.4332 21.6234 66.4332 21.4646V21.0789C66.4332 21.0789 67.1366 22.0091 68.6341 22.0091C71.107 22.0091 73.0356 20.1033 73.0356 17.5169C73.0356 14.9304 71.107 13.0246 68.6567 13.0246ZM68.2939 19.9445C67.4544 19.9445 66.7964 19.5134 66.4561 19.0143V15.9741C66.7964 15.5203 67.5223 15.0439 68.2939 15.0439C69.7457 15.0439 70.8576 15.9514 70.8576 17.4942C70.8576 19.037 69.7457 19.9445 68.2939 19.9445ZM63.1437 16.7228V21.805H60.9653V16.9724C60.9653 15.5657 60.5118 14.9985 59.2866 14.9985C58.6286 14.9985 57.9477 15.3388 57.5167 15.8379V21.7823H55.3387V13.2515H57.0632C57.2447 13.2515 57.3805 13.4103 57.3805 13.5691V13.9321C58.016 13.2742 58.8556 13.0246 59.6947 13.0246C60.6479 13.0246 61.4417 13.2969 62.0772 13.8414C62.8485 14.4767 63.1437 15.2934 63.1437 16.7228ZM50.0523 13.0246C48.5551 13.0246 47.8518 13.9321 47.8518 13.9321V9.14494H45.6738V21.7823C45.6738 21.7823 47.3525 21.7823 47.5112 21.7823C47.6927 21.7823 47.8289 21.6234 47.8289 21.4646V21.0789C47.8289 21.0789 48.5323 22.0091 50.0298 22.0091C52.5027 22.0091 54.4312 20.1033 54.4312 17.5169C54.4538 14.9304 52.5256 13.0246 50.0523 13.0246ZM49.6895 19.9445C48.85 19.9445 48.192 19.5134 47.8518 19.0143V15.9741C48.192 15.5203 48.9179 15.0439 49.6895 15.0439C51.1413 15.0439 52.2532 15.9514 52.2532 17.4942C52.2532 19.037 51.1413 19.9445 49.6895 19.9445ZM43.7906 13.0246C44.4486 13.0246 44.7888 13.138 44.7888 13.138V15.1573C44.7888 15.1573 42.9736 14.5447 41.8391 15.8379V21.805H39.6611V13.2515C39.6611 13.2515 41.3402 13.2515 41.4989 13.2515C41.6805 13.2515 41.8166 13.4103 41.8166 13.5691V13.9321C42.2252 13.4557 43.1097 13.0246 43.7906 13.0246ZM21.1703 21.0108C21.0569 20.7386 20.9434 20.4436 20.83 20.1941C20.6485 19.7857 20.467 19.4 20.3082 19.037L20.2855 19.0143C18.72 15.6111 17.0411 12.1625 15.2714 8.75923L15.2033 8.62309C15.0218 8.28277 14.8403 7.91975 14.6588 7.55675C14.4319 7.14836 14.205 6.71728 13.842 6.30889C13.116 5.40136 12.0723 4.90222 10.9606 4.90222C9.8262 4.90222 8.80523 5.40136 8.05651 6.26352C7.71619 6.6719 7.46661 7.10298 7.23973 7.51137C7.05824 7.87438 6.87671 8.23739 6.69522 8.5777L6.62714 8.71384C4.88018 12.1171 3.17855 15.5657 1.61306 18.9689L1.59037 19.0143C1.43155 19.3773 1.25005 19.763 1.06854 20.1714C0.955099 20.421 0.841659 20.6932 0.728217 20.9882C0.43327 21.8276 0.342517 22.6217 0.455959 23.4385C0.705529 25.1401 1.83994 26.5695 3.40543 27.2047C3.99532 27.4543 4.60791 27.5678 5.24316 27.5678C5.42469 27.5678 5.65157 27.5451 5.83306 27.5224C6.58178 27.4316 7.35317 27.182 8.1019 26.751C9.03211 26.2292 9.91694 25.4804 10.9152 24.3914C11.9135 25.4804 12.821 26.2292 13.7286 26.751C14.4773 27.182 15.2487 27.4316 15.9974 27.5224C16.1789 27.5451 16.4058 27.5678 16.5873 27.5678C17.2225 27.5678 17.8578 27.4543 18.425 27.2047C20.0132 26.5695 21.1249 25.1174 21.3745 23.4385C21.556 22.6444 21.4653 21.8503 21.1703 21.0108ZM10.9379 22.1906C9.71276 20.6479 8.91867 19.1958 8.6464 17.9707C8.53296 17.4488 8.51027 16.995 8.57835 16.5867C8.62371 16.2237 8.75984 15.906 8.94137 15.6338C9.37244 15.0212 10.0985 14.6355 10.9379 14.6355C11.7774 14.6355 12.5261 14.9985 12.9345 15.6338C13.116 15.906 13.2521 16.2237 13.2975 16.5867C13.3656 16.995 13.3429 17.4715 13.2294 17.9707C12.9572 19.1731 12.1631 20.6252 10.9379 22.1906ZM19.9905 23.257C19.8317 24.4368 19.0376 25.4577 17.9259 25.9115C17.3814 26.1384 16.7915 26.2065 16.2016 26.1384C15.6344 26.0703 15.0672 25.8888 14.4773 25.5485C13.6605 25.0947 12.8437 24.3914 11.8908 23.3477C13.3882 21.51 14.2958 19.8311 14.6361 18.3336C14.7949 17.6303 14.8176 16.995 14.7496 16.4052C14.6588 15.8379 14.4546 15.3161 14.137 14.8623C13.4336 13.8414 12.2538 13.2515 10.9379 13.2515C9.62201 13.2515 8.44222 13.8641 7.73888 14.8623C7.42126 15.3161 7.21703 15.8379 7.12629 16.4052C7.03554 16.995 7.05824 17.653 7.23973 18.3336C7.58005 19.8311 8.51027 21.5327 9.98503 23.3704C9.05481 24.4141 8.21534 25.1174 7.39856 25.5712C6.80866 25.9115 6.24146 26.093 5.67426 26.1611C5.06167 26.2292 4.47177 26.1384 3.94994 25.9342C2.83822 25.4804 2.04413 24.4595 1.88532 23.2797C1.81725 22.7125 1.86263 22.1453 2.08951 21.51C2.15758 21.2831 2.27102 21.0562 2.38446 20.784C2.54327 20.421 2.72478 20.0353 2.90629 19.6496L2.92897 19.6042C4.49447 16.2237 6.17338 12.775 7.92037 9.41717L7.98846 9.28104C8.16995 8.94072 8.35147 8.5777 8.53296 8.23739C8.71449 7.87438 8.91867 7.53406 9.16825 7.23911C9.64471 6.69459 10.28 6.39964 10.9833 6.39964C11.6866 6.39964 12.3219 6.69459 12.7983 7.23911C13.0479 7.53406 13.2521 7.87438 13.4336 8.23739C13.6151 8.5777 13.7966 8.94072 13.9781 9.28104L14.0462 9.41717C15.7705 12.7977 17.4494 16.2463 19.0149 19.6269V19.6496C19.1964 20.0126 19.3553 20.421 19.5367 20.784C19.6502 21.0562 19.7636 21.2831 19.8317 21.51C20.0132 22.0999 20.0813 22.6671 19.9905 23.257Z" fill="#BFC1C3"/>
</g>
<defs>
<clipPath id="clip0_155_939">
<rect width="72.625" height="32.6813" fill="white" transform="translate(0.410645)"/>
</clipPath>
</defs>
</svg>
