<svg width="32" height="32" viewBox="0 0 32 32" fill="none" xmlns="http://www.w3.org/2000/svg">
<path d="M29.3201 8.72941C29.3077 8.15745 29.2618 7.58669 29.1827 7.02008C29.0871 6.51617 28.9244 6.02736 28.6987 5.56675C28.2055 4.59232 27.4142 3.80062 26.4401 3.30675C25.9823 3.08238 25.4967 2.92006 24.9961 2.82408C24.4251 2.74359 23.8499 2.69684 23.2734 2.68408C23.0294 2.67475 22.7134 2.67075 22.5667 2.67075L9.43608 2.66675C9.28941 2.66675 8.97341 2.67075 8.72941 2.68008C8.15745 2.69248 7.58669 2.73834 7.02008 2.81741C6.51617 2.91301 6.02736 3.0758 5.56675 3.30141C4.59232 3.79471 3.80062 4.58594 3.30675 5.56008C3.08238 6.01782 2.92006 6.50343 2.82408 7.00408C2.74315 7.57503 2.69595 8.15025 2.68275 8.72675C2.67475 8.97075 2.66941 9.28675 2.66941 9.43341L2.66675 22.5641C2.66675 22.7107 2.67075 23.0267 2.68008 23.2707C2.69248 23.8427 2.73834 24.4135 2.81741 24.9801C2.91301 25.484 3.0758 25.9728 3.30141 26.4334C3.79471 27.4078 4.58594 28.1995 5.56008 28.6934C6.01782 28.9178 6.50343 29.0801 7.00408 29.1761C7.57505 29.2566 8.15027 29.3033 8.72675 29.3161C8.97075 29.3254 9.28675 29.3294 9.43341 29.3294L22.5641 29.3321C22.7107 29.3321 23.0267 29.3281 23.2707 29.3187C23.8427 29.3063 24.4135 29.2605 24.9801 29.1814C25.484 29.0858 25.9728 28.923 26.4334 28.6974C27.4083 28.2043 28.2005 27.4131 28.6947 26.4387C28.9191 25.981 29.0814 25.4954 29.1774 24.9947C29.2583 24.4238 29.3055 23.8486 29.3187 23.2721C29.3267 23.0281 29.3321 22.7121 29.3321 22.5654L29.3334 9.43608C29.3334 9.28941 29.3294 8.97341 29.3201 8.72941ZM16.2894 25.2761H16.2854C15.0229 25.277 13.7763 25.0254 12.6179 24.5397C12.0425 24.2984 11.4065 24.2069 10.8029 24.3651L10.6832 24.3965C8.91439 24.8603 7.30701 23.235 7.79029 21.4714C7.95782 20.86 7.86072 20.2128 7.60305 19.6336C6.89246 18.0364 6.63341 16.2676 6.86448 14.5219C7.13905 12.4476 8.09029 10.5219 9.57071 9.04319C11.0511 7.56452 12.978 6.61558 15.0527 6.34348C17.1273 6.07137 19.2337 6.49132 21.0454 7.53821C22.8571 8.58509 24.2727 10.2004 25.0729 12.1338C25.8731 14.0671 26.0132 16.2104 25.4713 18.2314C24.9294 20.2524 23.7359 22.0382 22.0758 23.3119C20.4157 24.5856 18.3818 25.276 16.2894 25.2761Z" fill="#FCFDFE"/>
<path d="M16.2934 7.86803C14.8815 7.86762 13.4953 8.24547 12.2789 8.96228C11.0625 9.6791 10.0604 10.7087 9.37671 11.944C8.69304 13.1793 8.3528 14.5753 8.39138 15.9866C8.42996 17.398 8.84594 18.7732 9.59607 19.9694L9.78407 20.268L8.9854 23.1827L11.9761 22.3987L12.2641 22.5694C13.4811 23.2915 14.8703 23.672 16.2854 23.6707H16.2894C18.3851 23.6711 20.3952 22.8389 21.8774 21.3572C23.3595 19.8755 24.1924 17.8658 24.1927 15.77C24.1931 13.6743 23.3609 11.6642 21.8792 10.1821C20.3976 8.69992 18.3878 7.86705 16.2921 7.8667L16.2934 7.86803ZM20.9387 19.1614C20.7642 19.4502 20.5317 19.6997 20.2558 19.8941C19.98 20.0885 19.6668 20.2235 19.3361 20.2907C18.8369 20.3765 18.3247 20.3445 17.8401 20.1974C17.3802 20.0548 16.9285 19.8875 16.4867 19.696C14.8464 18.8728 13.4482 17.6373 12.4294 16.1107C11.8734 15.4041 11.5361 14.5505 11.4587 13.6547C11.4526 13.285 11.5234 12.9181 11.6666 12.5772C11.8098 12.2364 12.0224 11.929 12.2907 11.6747C12.3704 11.5845 12.4677 11.5115 12.5766 11.4604C12.6855 11.4092 12.8038 11.381 12.9241 11.3774C13.0814 11.3774 13.2401 11.3774 13.3787 11.3854C13.5254 11.392 13.7201 11.3294 13.9121 11.7934C14.1121 12.268 14.5867 13.4374 14.6454 13.556C14.6828 13.6183 14.7043 13.6889 14.7077 13.7615C14.7112 13.8341 14.6967 13.9064 14.6654 13.972C14.6059 14.1148 14.5259 14.2482 14.4281 14.368C14.3081 14.5067 14.1787 14.6774 14.0721 14.784C13.9521 14.9027 13.8294 15.0307 13.9667 15.268C14.324 15.8784 14.7692 16.4328 15.2881 16.9134C15.8522 17.4136 16.4986 17.8123 17.1987 18.092C17.4361 18.212 17.5747 18.1907 17.7134 18.032C17.8521 17.8734 18.3067 17.3387 18.4654 17.1014C18.6241 16.864 18.7814 16.904 18.9987 16.9827C19.2161 17.0614 20.3854 17.636 20.6227 17.756C20.8601 17.876 21.0187 17.9334 21.0774 18.032C21.1415 18.414 21.0933 18.8063 20.9387 19.1614Z" fill="#FCFDFE"/>
</svg>
